<?xml version="1.0" encoding="UTF-8" standalone="no"?>
<!DOCTYPE svg PUBLIC "-//W3C//DTD SVG 1.1//EN"
 "http://www.w3.org/Graphics/SVG/1.1/DTD/svg11.dtd">
<!-- Generated by graphviz version 2.40.1 (20161225.0304)
 -->
<!-- Title: dependencies Pages: 1 -->
<svg width="504pt" height="284pt"
 viewBox="0.00 0.00 504.00 284.00" xmlns="http://www.w3.org/2000/svg" xmlns:xlink="http://www.w3.org/1999/xlink">
<g id="graph0" class="graph" transform="scale(1 1) rotate(0) translate(4 280)">
<title>dependencies</title>
<polygon fill="#ffffff" stroke="transparent" points="-4,4 -4,-280 500,-280 500,4 -4,4"/>
<text text-anchor="start" x="227.0091" y="-42.4" font-family="sans-serif" font-weight="bold" font-size="14.00" fill="#000000">Legend</text>
<polygon fill="#ffffb3" stroke="transparent" points="14,-10 14,-30 34,-30 34,-10 14,-10"/>
<text text-anchor="start" x="37.629" y="-15.4" font-family="sans-serif" font-size="14.00" fill="#000000"> &#160;Declarations</text>
<polygon fill="#8dd3c7" stroke="transparent" points="127,-10 127,-30 147,-30 147,-10 127,-10"/>
<text text-anchor="start" x="150.7251" y="-15.4" font-family="sans-serif" font-size="14.00" fill="#000000"> &#160;Module</text>
<polygon fill="#80b1d3" stroke="transparent" points="213,-10 213,-30 233,-30 233,-10 213,-10"/>
<text text-anchor="start" x="236.7812" y="-15.4" font-family="sans-serif" font-size="14.00" fill="#000000"> &#160;Bootstrap</text>
<polygon fill="#fdb462" stroke="transparent" points="310,-10 310,-30 330,-30 330,-10 310,-10"/>
<text text-anchor="start" x="333.6732" y="-15.4" font-family="sans-serif" font-size="14.00" fill="#000000"> &#160;Providers</text>
<polygon fill="#fb8072" stroke="transparent" points="406,-10 406,-30 426,-30 426,-10 406,-10"/>
<text text-anchor="start" x="429.7258" y="-15.4" font-family="sans-serif" font-size="14.00" fill="#000000"> &#160;Exports</text>
<g id="clust1" class="cluster">
<title>cluster_TodoModule</title>
<polygon fill="none" stroke="#000000" stroke-dasharray="1,5" points="13.5,-70 13.5,-268 482.5,-268 482.5,-70 13.5,-70"/>
</g>
<g id="clust2" class="cluster">
<title>cluster_TodoModule_declarations</title>
<polygon fill="none" stroke="#000000" points="151.5,-78 151.5,-130 474.5,-130 474.5,-78 151.5,-78"/>
</g>
<g id="clust5" class="cluster">
<title>cluster_TodoModule_imports</title>
<polygon fill="none" stroke="#000000" points="21.5,-78 21.5,-130 143.5,-130 143.5,-78 21.5,-78"/>
</g>
<g id="clust6" class="cluster">
<title>cluster_TodoModule_exports</title>
<polygon fill="none" stroke="#000000" points="183.5,-208 183.5,-260 313.5,-260 313.5,-208 183.5,-208"/>
</g>
<!-- TodoComponent -->
<g id="node1" class="node">
<title>TodoComponent</title>
<polygon fill="#ffffb3" stroke="#000000" points="466.8851,-122 356.1149,-122 356.1149,-86 466.8851,-86 466.8851,-122"/>
<text text-anchor="middle" x="411.5" y="-99.8" font-family="Times,serif" font-size="14.00" fill="#000000">TodoComponent</text>
</g>
<!-- TodoModule -->
<g id="node3" class="node">
<title>TodoModule</title>
<polygon fill="#8dd3c7" stroke="#000000" points="293.1025,-187 290.1025,-191 269.1025,-191 266.1025,-187 203.8975,-187 203.8975,-151 293.1025,-151 293.1025,-187"/>
<text text-anchor="middle" x="248.5" y="-164.8" font-family="Times,serif" font-size="14.00" fill="#000000">TodoModule</text>
</g>
<!-- TodoComponent&#45;&gt;TodoModule -->
<g id="edge1" class="edge">
<title>TodoComponent&#45;&gt;TodoModule</title>
<path fill="none" stroke="#000000" d="M411.5,-122.1061C411.5,-141.3391 411.5,-169 411.5,-169 411.5,-169 303.472,-169 303.472,-169"/>
<polygon fill="#000000" stroke="#000000" points="303.472,-165.5001 293.472,-169 303.4719,-172.5001 303.472,-165.5001"/>
</g>
<!-- PIPES_AND_DIRECTIVES -->
<g id="node2" class="node">
<title>PIPES_AND_DIRECTIVES</title>
<polygon fill="#ffffb3" stroke="#000000" points="337.5294,-122 159.4706,-122 159.4706,-86 337.5294,-86 337.5294,-122"/>
<text text-anchor="middle" x="248.5" y="-99.8" font-family="Times,serif" font-size="14.00" fill="#000000">PIPES_AND_DIRECTIVES</text>
</g>
<!-- PIPES_AND_DIRECTIVES&#45;&gt;TodoModule -->
<g id="edge2" class="edge">
<title>PIPES_AND_DIRECTIVES&#45;&gt;TodoModule</title>
<path fill="none" stroke="#000000" d="M248.5,-122.1061C248.5,-122.1061 248.5,-140.991 248.5,-140.991"/>
<polygon fill="#000000" stroke="#000000" points="245.0001,-140.9909 248.5,-150.991 252.0001,-140.991 245.0001,-140.9909"/>
</g>
<!-- TodoComponent  -->
<g id="node5" class="node">
<title>TodoComponent </title>
<polygon fill="#fb8072" stroke="#000000" points="305.8857,-252 191.1143,-252 191.1143,-216 305.8857,-216 305.8857,-252"/>
<text text-anchor="middle" x="248.5" y="-229.8" font-family="Times,serif" font-size="14.00" fill="#000000">TodoComponent </text>
</g>
<!-- TodoModule&#45;&gt;TodoComponent  -->
<g id="edge4" class="edge">
<title>TodoModule&#45;&gt;TodoComponent </title>
<path fill="none" stroke="#000000" stroke-dasharray="5,2" d="M248.5,-187.1061C248.5,-187.1061 248.5,-205.991 248.5,-205.991"/>
<polygon fill="#000000" stroke="#000000" points="245.0001,-205.9909 248.5,-215.991 252.0001,-205.991 245.0001,-205.9909"/>
</g>
<!-- BrowserModule -->
<g id="node4" class="node">
<title>BrowserModule</title>
<polygon fill="#8dd3c7" stroke="#000000" points="135.9734,-122 132.9734,-126 111.9734,-126 108.9734,-122 29.0266,-122 29.0266,-86 135.9734,-86 135.9734,-122"/>
<text text-anchor="middle" x="82.5" y="-99.8" font-family="Times,serif" font-size="14.00" fill="#000000">BrowserModule</text>
</g>
<!-- BrowserModule&#45;&gt;TodoModule -->
<g id="edge3" class="edge">
<title>BrowserModule&#45;&gt;TodoModule</title>
<path fill="none" stroke="#000000" d="M82.5,-122.1061C82.5,-141.3391 82.5,-169 82.5,-169 82.5,-169 193.578,-169 193.578,-169"/>
<polygon fill="#000000" stroke="#000000" points="193.578,-172.5001 203.578,-169 193.578,-165.5001 193.578,-172.5001"/>
</g>
</g>
</svg>
